<svg width="32" height="32" viewBox="0 0 32 32" fill="none" xmlns="http://www.w3.org/2000/svg">
<path d="M11.539 25.3333C20.596 25.3333 25.5505 18.1499 25.5505 11.9314C25.5505 11.7304 25.5505 11.5265 25.5415 11.3255C26.5061 10.6571 27.3386 9.82955 28 8.88169C27.099 9.26197 26.1441 9.5126 25.1665 9.62544C26.1963 9.03624 26.9676 8.10917 27.337 7.01656C26.3695 7.56522 25.3105 7.95038 24.2065 8.15516C23.4643 7.39852 22.4821 6.89726 21.4121 6.72904C20.3422 6.56082 19.2441 6.73502 18.288 7.22466C17.3319 7.7143 16.5712 8.49205 16.1237 9.43744C15.6761 10.3828 15.5668 11.4431 15.8125 12.454C13.8546 12.36 11.9392 11.8732 10.1906 11.025C8.4419 10.1768 6.89903 8.98628 5.662 7.53058C5.03401 8.5688 4.84236 9.79688 5.12597 10.9654C5.40958 12.134 6.14718 13.1555 7.189 13.8223C6.40831 13.797 5.64478 13.5963 4.96 13.2365V13.3011C4.96135 14.3888 5.35496 15.4426 6.07431 16.2844C6.79366 17.1263 7.79462 17.7046 8.908 17.9216C8.48539 18.0331 8.04884 18.0886 7.6105 18.0867C7.30148 18.0876 6.99307 18.0602 6.6895 18.0049C7.00418 18.9411 7.61691 19.7597 8.44187 20.346C9.26683 20.9322 10.2627 21.2568 11.29 21.2743C9.54483 22.5863 7.3891 23.2979 5.17 23.2945C4.77898 23.296 4.38823 23.2745 4 23.2298C6.25227 24.6043 8.86795 25.3341 11.539 25.3333Z" fill="white"/>
</svg>